<?xml version="1.0" encoding="UTF-8"?>
<!DOCTYPE svg PUBLIC "-//W3C//DTD SVG 1.1//EN" "http://www.w3.org/Graphics/SVG/1.1/DTD/svg11.dtd">
<svg xmlns="http://www.w3.org/2000/svg" version="1.1" width="21px" height="20px" style="shape-rendering:geometricPrecision; text-rendering:geometricPrecision; image-rendering:optimizeQuality; fill-rule:evenodd; clip-rule:evenodd" xmlns:xlink="http://www.w3.org/1999/xlink">
<g><path style="opacity:0.739" fill="#1ca9c3" d="M 4.5,-0.5 C 8.5,-0.5 12.5,-0.5 16.5,-0.5C 17.4602,1.4607 18.7935,3.12736 20.5,4.5C 20.5,7.83333 20.5,11.1667 20.5,14.5C 20.1667,14.5 19.8333,14.5 19.5,14.5C 18.8333,14.1667 18.1667,13.8333 17.5,13.5C 18.9802,10.7449 18.8135,8.07821 17,5.5C 15.4439,9.87572 12.9439,13.5424 9.5,16.5C 7.02842,13.8852 5.36176,10.8852 4.5,7.5C 6.90987,7.92087 8.7432,9.2542 10,11.5C 11.7088,8.58154 13.5421,5.74821 15.5,3C 7.24069,-0.0382335 2.57402,2.7951 1.5,11.5C 0.833333,11.5 0.166667,11.5 -0.5,11.5C -0.5,9.16667 -0.5,6.83333 -0.5,4.5C 1.5,3.16667 3.16667,1.5 4.5,-0.5 Z"/></g>
<g><path style="opacity:0.692" fill="#1da8c2" d="M -0.5,11.5 C 0.166667,11.5 0.833333,11.5 1.5,11.5C 6.03762,18.5409 11.371,19.2076 17.5,13.5C 18.1667,13.8333 18.8333,14.1667 19.5,14.5C 18.5161,16.4799 17.1827,18.1466 15.5,19.5C 11.8333,19.5 8.16667,19.5 4.5,19.5C 2.83333,17.8333 1.16667,16.1667 -0.5,14.5C -0.5,13.5 -0.5,12.5 -0.5,11.5 Z"/></g>
</svg>
